<svg width="30" height="30" viewBox="0 0 30 30" fill="none" xmlns="http://www.w3.org/2000/svg">
<path fill-rule="evenodd" clip-rule="evenodd" d="M14.9997 4.83464C13.997 4.83442 13.0041 5.03175 12.0777 5.41537C11.1512 5.79899 10.3095 6.36137 9.60046 7.07039C8.89144 7.77941 8.32906 8.62117 7.94544 9.54759C7.56183 10.474 7.36449 11.4669 7.36471 12.4696V17.2396C7.36471 17.823 7.13138 18.3796 6.72138 18.7896L6.22138 19.2896L6.08471 19.4296L6.08304 19.628C6.08304 19.863 6.08304 20.0013 6.08804 20.1013C6.18638 20.1046 6.32138 20.1063 6.55471 20.1063H23.4447C23.6764 20.1063 23.8114 20.1063 23.9114 20.1013C23.9182 19.8769 23.9193 19.6524 23.9147 19.428L23.7764 19.288L23.2764 18.7896C22.8662 18.378 22.6355 17.8208 22.6347 17.2396V12.4696C22.6349 11.4669 22.4376 10.474 22.054 9.54759C21.6704 8.62117 21.108 7.77941 20.399 7.07039C19.6899 6.36137 18.8482 5.79899 17.9218 5.41537C16.9953 5.03175 16.0024 4.83442 14.9997 4.83464ZM4.69804 12.4696C4.69804 9.73746 5.7834 7.11719 7.71533 5.18526C9.64727 3.25332 12.2675 2.16797 14.9997 2.16797C17.7319 2.16797 20.3522 3.25332 22.2841 5.18526C24.216 7.11719 25.3014 9.73746 25.3014 12.4696V17.043L25.6614 17.403L25.6947 17.4363C25.8114 17.553 25.9664 17.7063 26.093 17.883C26.3297 18.213 26.483 18.5913 26.548 18.983C26.583 19.1996 26.583 19.4163 26.583 19.583V19.7346C26.5847 20.108 26.5864 20.5763 26.4464 20.993C26.1847 21.7646 25.5797 22.3746 24.8047 22.6363C24.388 22.7763 23.9214 22.7746 23.5514 22.773H20.178C20.178 24.1461 19.6326 25.463 18.6616 26.434C17.6906 27.405 16.3737 27.9505 15.0005 27.9505C13.6274 27.9505 12.3105 27.405 11.3395 26.434C10.3685 25.463 9.82304 24.1461 9.82304 22.773H6.44804C6.07971 22.773 5.61138 22.7763 5.19638 22.6363C4.81438 22.5075 4.46732 22.2921 4.18226 22.0071C3.8972 21.722 3.68186 21.375 3.55304 20.993C3.41304 20.5763 3.41471 20.108 3.41638 19.7346V19.5813C3.41638 19.4146 3.41638 19.198 3.44971 18.9846C3.51638 18.588 3.67138 18.2096 3.90638 17.883C4.03471 17.7046 4.18638 17.553 4.30638 17.433L4.33804 17.403L4.69804 17.043V12.4696ZM12.4897 22.773C12.4897 23.4387 12.7542 24.0771 13.2249 24.5478C13.6956 25.0185 14.334 25.283 14.9997 25.283C15.6654 25.283 16.3038 25.0185 16.7745 24.5478C17.2453 24.0771 17.5097 23.4387 17.5097 22.773H12.4897Z" fill="#A0A0A0"/>
<path d="M27 4L2 27" stroke="#A0A0A0" stroke-width="2.5" stroke-linecap="round"/>
</svg>
