<svg width="35" height="19" viewBox="0 0 35 19" fill="none" xmlns="http://www.w3.org/2000/svg">
<g filter="url(#filter0_d_4869_13743)">
<path d="M2 9.5C2 5.35786 5.35786 2 9.5 2H25.5C29.6421 2 33 5.35786 33 9.5C33 13.6421 29.6421 17 25.5 17H9.5C5.35786 17 2 13.6421 2 9.5Z" fill="white"/>
<path d="M15.5361 13V6.63672H16.8545V11.9102H19.5967V13H15.5361ZM23.7549 8.22754L22.0762 13H20.6172L18.9473 8.22754H20.3184L21.3203 11.6553H21.373L22.375 8.22754H23.7549ZM27.9141 13.0879C26.5957 13.0791 25.3477 12.2969 25.3477 9.96777C25.3477 7.82324 26.376 6.54883 27.9668 6.54883C29.25 6.54883 30.1201 7.35742 30.252 8.40332H28.9512C28.8457 7.95508 28.4766 7.68262 27.9668 7.68262C27.1055 7.68262 26.6484 8.46484 26.6396 9.71289H26.7012C26.9912 9.15039 27.624 8.81641 28.3271 8.81641C29.4697 8.81641 30.3223 9.67773 30.3223 10.873C30.3223 12.165 29.3467 13.0967 27.9141 13.0879ZM27.9053 12.042C28.5557 12.042 29.0391 11.5498 29.0391 10.9082C29.0391 10.2754 28.5732 9.77441 27.9229 9.77441C27.2725 9.77441 26.7803 10.2842 26.7715 10.9082C26.7803 11.5322 27.2549 12.042 27.9053 12.042Z" fill="#00D674"/>
<path d="M11 10.3333C11 11.8061 9.65685 13 8 13C6.34315 13 5 11.8061 5 10.3333C5 8.86057 6.34315 6 8 6C9.65685 6 11 8.86057 11 10.3333Z" fill="#00D674"/>
<path d="M5 10.3529L5.42857 11L5.91071 10.3529L6.66071 10.8235L7.14286 10.3529L7.94643 10.8235L8.26786 10.2353L8.96429 10.7059L9.17857 10.2353L9.76786 10.7059L10.0357 10L10.7321 10.4706L11 10" stroke="black" stroke-width="0.1"/>
</g>
<defs>
<filter id="filter0_d_4869_13743" x="0" y="0" width="35" height="19" filterUnits="userSpaceOnUse" color-interpolation-filters="sRGB">
<feFlood flood-opacity="0" result="BackgroundImageFix"/>
<feColorMatrix in="SourceAlpha" type="matrix" values="0 0 0 0 0 0 0 0 0 0 0 0 0 0 0 0 0 0 127 0" result="hardAlpha"/>
<feOffset/>
<feGaussianBlur stdDeviation="1"/>
<feComposite in2="hardAlpha" operator="out"/>
<feColorMatrix type="matrix" values="0 0 0 0 0 0 0 0 0 0 0 0 0 0 0 0 0 0 0.1 0"/>
<feBlend mode="normal" in2="BackgroundImageFix" result="effect1_dropShadow_4869_13743"/>
<feBlend mode="normal" in="SourceGraphic" in2="effect1_dropShadow_4869_13743" result="shape"/>
</filter>
</defs>
</svg>
