<svg width="12" height="7" viewBox="0 0 12 7" fill="none" xmlns="http://www.w3.org/2000/svg">
<path d="M5.4481 6.41521L0.138095 0.842212C0.0494507 0.749224 0 0.625683 0 0.497212C0 0.368741 0.0494507 0.245201 0.138095 0.152213L0.144095 0.146212C0.187069 0.100977 0.238795 0.0649575 0.296128 0.0403438C0.353461 0.01573 0.415202 0.00303698 0.477595 0.00303698C0.539989 0.00303698 0.60173 0.01573 0.659063 0.0403438C0.716396 0.0649575 0.768122 0.100977 0.811095 0.146212L5.8111 5.39421L10.8091 0.146212C10.8521 0.100977 10.9038 0.0649575 10.9611 0.0403438C11.0185 0.01573 11.0802 0.00303698 11.1426 0.00303698C11.205 0.00303698 11.2667 0.01573 11.3241 0.0403438C11.3814 0.0649575 11.4331 0.100977 11.4761 0.146212L11.4821 0.152213C11.5707 0.245201 11.6202 0.368741 11.6202 0.497212C11.6202 0.625683 11.5707 0.749224 11.4821 0.842212L6.1721 6.41521C6.1254 6.46422 6.06923 6.50324 6.00701 6.5299C5.94478 6.55657 5.87779 6.57031 5.8101 6.57031C5.7424 6.57031 5.67541 6.55657 5.61318 6.5299C5.55096 6.50324 5.49479 6.46422 5.4481 6.41521Z" fill="black"/>
</svg>
