<svg width="21" height="23" viewBox="0 0 21 23" fill="none" xmlns="http://www.w3.org/2000/svg">
<path d="M0 10.0312C1.85156 10.0312 2.48438 9.32812 2.48438 7.57031V4.5C2.48438 1.10156 4.00781 0 7.3125 0V1.96875C5.36719 1.96875 4.82812 2.8125 4.82812 4.61719V8.29688C4.82812 9.62109 4.37109 10.6758 2.29688 11.0859V11.3672C4.37109 11.7773 4.82812 12.832 4.82812 14.1562V17.8359C4.82812 19.6641 5.36719 20.4844 7.3125 20.4844V22.4766C4.00781 22.4766 2.48438 21.375 2.48438 17.9531V14.9062C2.48438 13.1484 1.85156 12.4219 0 12.4219V10.0312ZM20.6562 12.4219C18.8047 12.4219 18.1719 13.1484 18.1719 14.9062V17.9531C18.1719 21.375 16.6484 22.4766 13.3438 22.4766V20.4844C15.2891 20.4844 15.8281 19.6641 15.8281 17.8359V14.1562C15.8281 12.832 16.2852 11.7773 18.3594 11.3672V11.0859C16.2852 10.6758 15.8281 9.62109 15.8281 8.29688V4.61719C15.8281 2.8125 15.2891 1.96875 13.3438 1.96875V0C16.6484 0 18.1719 1.10156 18.1719 4.5V7.57031C18.1719 9.32812 18.8047 10.0312 20.6562 10.0312V12.4219Z" fill="#A0A0A0"/>
</svg>
