<svg width="12" height="12" viewBox="0 0 12 12" fill="none" xmlns="http://www.w3.org/2000/svg">
<rect width="12" height="12" fill="white"/>
<path d="M6 3.14453C6.10938 3.14453 6.21289 3.12109 6.31055 3.07422C6.4082 3.02734 6.49219 2.96484 6.5625 2.88672C6.78906 2.62891 7.05664 2.42578 7.36523 2.27734C7.67383 2.12891 8.00781 2.05469 8.36719 2.05469C8.69531 2.05469 9.00391 2.11719 9.29297 2.24219C9.58203 2.36719 9.83398 2.53711 10.0488 2.75195C10.2637 2.9668 10.4336 3.21875 10.5586 3.50781C10.6836 3.80469 10.7461 4.11719 10.7461 4.44531C10.7461 4.71875 10.7148 4.98242 10.6523 5.23633C10.5898 5.49023 10.4883 5.78125 10.3477 6.10938C10.1445 6.52344 9.86328 6.92383 9.50391 7.31055C9.14453 7.69727 8.75391 8.05859 8.33203 8.39453C7.91016 8.72266 7.49805 9.00977 7.0957 9.25586C6.69336 9.50195 6.36719 9.69141 6.11719 9.82422C6.07812 9.84766 6.03906 9.85938 6 9.85938C5.96094 9.85938 5.92188 9.84766 5.88281 9.82422C5.63281 9.69141 5.30664 9.50195 4.9043 9.25586C4.50195 9.00977 4.08984 8.72266 3.66797 8.39453C3.23828 8.05859 2.8457 7.69727 2.49023 7.31055C2.13477 6.92383 1.85547 6.52344 1.65234 6.10938C1.51172 5.78125 1.41016 5.49023 1.34766 5.23633C1.28516 4.98242 1.25391 4.71875 1.25391 4.44531C1.25391 4.11719 1.31641 3.80469 1.44141 3.50781C1.56641 3.21875 1.73633 2.9668 1.95117 2.75195C2.16602 2.53711 2.41797 2.36719 2.70703 2.24219C2.99609 2.11719 3.30469 2.05469 3.63281 2.05469C3.99219 2.05469 4.32617 2.12891 4.63477 2.27734C4.94336 2.42578 5.21094 2.62891 5.4375 2.88672C5.50781 2.96484 5.5918 3.02734 5.68945 3.07422C5.78711 3.12109 5.89062 3.14453 6 3.14453ZM11.0273 6.42578C11.1836 6.05859 11.3008 5.72266 11.3789 5.41797C11.457 5.11328 11.4961 4.78906 11.4961 4.44531C11.4961 4.00781 11.4141 3.60156 11.25 3.22656C11.0859 2.84375 10.8633 2.50977 10.582 2.22461C10.3008 1.93945 9.96875 1.71484 9.58594 1.55078C9.20312 1.38672 8.79688 1.30469 8.36719 1.30469C8.03125 1.30469 7.70898 1.35547 7.40039 1.45703C7.0918 1.55859 6.80859 1.70312 6.55078 1.89062C6.44922 1.96094 6.35352 2.03906 6.26367 2.125C6.17383 2.21094 6.08594 2.30078 6 2.39453C5.91406 2.30078 5.82617 2.21094 5.73633 2.125C5.64648 2.03906 5.55078 1.96094 5.44922 1.89062C5.19141 1.70312 4.9082 1.55859 4.59961 1.45703C4.29102 1.35547 3.96875 1.30469 3.63281 1.30469C3.20312 1.30469 2.79688 1.38672 2.41406 1.55078C2.03125 1.71484 1.69922 1.93945 1.41797 2.22461C1.13672 2.50977 0.914062 2.84375 0.75 3.22656C0.585938 3.60156 0.503906 4.00781 0.503906 4.44531C0.503906 4.78906 0.542969 5.11328 0.621094 5.41797C0.699219 5.72266 0.816406 6.05859 0.972656 6.42578C1.20703 6.91797 1.52734 7.37891 1.93359 7.80859C2.33203 8.24609 2.75586 8.63867 3.20508 8.98633C3.6543 9.33398 4.08594 9.63672 4.5 9.89453C4.92188 10.1523 5.26562 10.3516 5.53125 10.4922C5.67969 10.5703 5.83594 10.6094 6 10.6094C6.16406 10.6094 6.32031 10.5703 6.46875 10.4922C6.73438 10.3516 7.07422 10.1523 7.48828 9.89453C7.91016 9.63672 8.34375 9.33398 8.78906 8.98633C9.23438 8.63867 9.66016 8.24609 10.0664 7.80859C10.4727 7.37891 10.793 6.91797 11.0273 6.42578Z" fill="#828C94"/>
</svg>
