<svg width="11" height="10" viewBox="0 0 11 10" fill="none" xmlns="http://www.w3.org/2000/svg">
<path d="M1 2L1.5 1L3.5 0.5L5.5 1.5L7 0.5H8.5L10 1.5L10.5 3L10 5L9 6.5L5.5 9L1 6L0.5 3.5L1 2Z" fill="#7255EE"/>
<path d="M7.86328 0C8.29297 0 8.69922 0.0820312 9.08203 0.246094C9.46484 0.410156 9.79688 0.634766 10.0781 0.919922C10.3594 1.20508 10.582 1.53906 10.7461 1.92188C10.9102 2.29688 10.9922 2.70312 10.9922 3.14062C10.9922 3.48438 10.9531 3.80859 10.875 4.11328C10.7969 4.41797 10.6797 4.75391 10.5234 5.12109C10.2891 5.61328 9.96875 6.07422 9.5625 6.50391C9.15625 6.94141 8.73047 7.33398 8.28516 7.68164C7.83984 8.0293 7.40625 8.33203 6.98438 8.58984C6.57031 8.84766 6.23047 9.04688 5.96484 9.1875C5.81641 9.26562 5.66016 9.30469 5.49609 9.30469C5.33203 9.30469 5.17578 9.26562 5.02734 9.1875C4.76172 9.04688 4.41797 8.84766 3.99609 8.58984C3.58203 8.33203 3.15039 8.0293 2.70117 7.68164C2.25195 7.33398 1.82812 6.94141 1.42969 6.50391C1.02344 6.07422 0.703125 5.61328 0.46875 5.12109C0.3125 4.75391 0.195312 4.41797 0.117188 4.11328C0.0390625 3.80859 0 3.48438 0 3.14062C0 2.70312 0.0820312 2.29688 0.246094 1.92188C0.410156 1.53906 0.632812 1.20508 0.914062 0.919922C1.19531 0.634766 1.52734 0.410156 1.91016 0.246094C2.29297 0.0820312 2.69922 0 3.12891 0C3.46484 0 3.78711 0.0507812 4.0957 0.152344C4.4043 0.253906 4.6875 0.398438 4.94531 0.585938C5.04688 0.65625 5.14258 0.734375 5.23242 0.820312C5.32227 0.90625 5.41016 0.996094 5.49609 1.08984C5.58203 0.996094 5.66992 0.90625 5.75977 0.820312C5.84961 0.734375 5.94531 0.65625 6.04688 0.585938C6.30469 0.398438 6.58789 0.253906 6.89648 0.152344C7.20508 0.0507812 7.52734 0 7.86328 0ZM7.86328 0.75C7.50391 0.75 7.16992 0.824219 6.86133 0.972656C6.55273 1.12109 6.28516 1.32422 6.05859 1.58203C5.98828 1.66016 5.9043 1.72266 5.80664 1.76953C5.70898 1.81641 5.60547 1.83984 5.49609 1.83984C5.38672 1.83984 5.2832 1.81641 5.18555 1.76953C5.08789 1.72266 5.00391 1.66016 4.93359 1.58203C4.70703 1.32422 4.43945 1.12109 4.13086 0.972656C3.82227 0.824219 3.48828 0.75 3.12891 0.75C2.80078 0.75 2.49219 0.8125 2.20312 0.9375C1.91406 1.0625 1.66211 1.23242 1.44727 1.44727C1.23242 1.66211 1.0625 1.91406 0.9375 2.20312C0.8125 2.5 0.75 2.8125 0.75 3.14062C0.75 3.41406 0.78125 3.67773 0.84375 3.93164C0.90625 4.18555 1.00781 4.47656 1.14844 4.80469C1.35156 5.21875 1.63086 5.61914 1.98633 6.00586C2.3418 6.39258 2.73438 6.75391 3.16406 7.08984C3.58594 7.41797 3.99805 7.70508 4.40039 7.95117C4.80273 8.19727 5.12891 8.38672 5.37891 8.51953C5.41797 8.54297 5.45703 8.55469 5.49609 8.55469C5.53516 8.55469 5.57422 8.54297 5.61328 8.51953C5.86328 8.38672 6.18945 8.19727 6.5918 7.95117C6.99414 7.70508 7.40625 7.41797 7.82812 7.08984C8.25 6.75391 8.64062 6.39258 9 6.00586C9.35938 5.61914 9.64062 5.21875 9.84375 4.80469C9.98438 4.47656 10.0859 4.18555 10.1484 3.93164C10.2109 3.67773 10.2422 3.41406 10.2422 3.14062C10.2422 2.8125 10.1797 2.5 10.0547 2.20312C9.92969 1.91406 9.75977 1.66211 9.54492 1.44727C9.33008 1.23242 9.07812 1.0625 8.78906 0.9375C8.5 0.8125 8.19141 0.75 7.86328 0.75Z" fill="#7255EE"/>
</svg>
