<svg width="13" height="11" viewBox="0 0 13 11" fill="none" xmlns="http://www.w3.org/2000/svg">
<path d="M6.19922 10.3027C6.33544 10.3027 6.46644 10.2701 6.59082 10.2051L6.58984 10.2041C6.84928 10.0779 7.21006 9.87868 7.66992 9.60547L8.02832 9.38867C8.3907 9.16163 8.76473 8.90367 9.15039 8.61621C9.66621 8.23171 10.1647 7.7976 10.6455 7.31348C11.1302 6.82546 11.5076 6.29802 11.7773 5.73145L11.7793 5.72754C11.9512 5.32635 12.0811 4.96105 12.168 4.63184C12.2557 4.29929 12.2988 3.94221 12.2988 3.56152C12.2988 3.08394 12.2074 2.63444 12.0225 2.21484C11.8385 1.79763 11.5883 1.43091 11.2725 1.11523C10.9558 0.798816 10.5818 0.550998 10.1523 0.37207C9.72181 0.192685 9.26499 0.103516 8.7832 0.103516C8.38058 0.10354 7.99839 0.165043 7.6377 0.289062C7.27869 0.412528 6.94967 0.584892 6.65137 0.806641L6.64844 0.808594C6.55276 0.884702 6.46117 0.963451 6.37402 1.04395C6.3129 1.10041 6.25612 1.16013 6.19922 1.21875C6.14231 1.16013 6.08553 1.10041 6.02441 1.04395C5.93726 0.963451 5.84568 0.884702 5.75 0.808594L5.74707 0.806641C5.44876 0.584892 5.11975 0.412528 4.76074 0.289062C4.40005 0.165043 4.01786 0.10354 3.61523 0.103516C3.13344 0.103516 2.67663 0.192685 2.24609 0.37207C1.81667 0.550998 1.44264 0.798816 1.12598 1.11523C0.810138 1.43091 0.559894 1.79763 0.375977 2.21484C0.191013 2.63444 0.0996094 3.08394 0.0996094 3.56152C0.0996238 3.94221 0.142764 4.29929 0.230469 4.63184C0.317308 4.96105 0.447202 5.32635 0.619141 5.72754L0.620117 5.73145H0.621094C0.890791 6.29802 1.26828 6.82546 1.75293 7.31348C2.2254 7.79781 2.72191 8.23259 3.24219 8.61719C3.76024 9.00013 4.25101 9.32988 4.71484 9.60547H4.71582C5.18385 9.87849 5.54846 10.078 5.80762 10.2041V10.2051C5.93199 10.2701 6.063 10.3027 6.19922 10.3027ZM6.19922 9.40039C5.95694 9.27707 5.62212 9.09134 5.19434 8.8418C4.75017 8.5827 4.28136 8.27227 3.78906 7.90918C3.29883 7.5476 2.8425 7.14838 2.41992 6.71289C2.00091 6.28103 1.67896 5.831 1.4541 5.3623C1.2935 5.00072 1.17911 4.684 1.1084 4.41309C1.03821 4.14416 1.00294 3.86031 1.00293 3.56152C1.00293 3.21067 1.07274 2.8763 1.21191 2.55762L1.3252 2.33105C1.44786 2.11195 1.59701 1.91581 1.77246 1.74219C2.00594 1.51121 2.283 1.32672 2.60449 1.19043H2.60547C2.91621 1.05528 3.25283 0.987305 3.61523 0.987305C4.0102 0.987337 4.37469 1.06944 4.70996 1.23242C5.04834 1.39694 5.34083 1.61547 5.58789 1.8877C5.66557 1.97266 5.75802 2.03897 5.86426 2.08594C5.97078 2.13301 6.08292 2.15625 6.19922 2.15625C6.31552 2.15625 6.42766 2.13301 6.53418 2.08594C6.61388 2.0507 6.68527 2.00393 6.74902 1.94727L6.81055 1.8877C7.05761 1.61547 7.3501 1.39694 7.68848 1.23242C8.02375 1.06944 8.38824 0.987337 8.7832 0.987305C9.14561 0.987305 9.48223 1.05528 9.79297 1.19043H9.79395C10.1154 1.32672 10.3925 1.51121 10.626 1.74219C10.8598 1.97359 11.0465 2.24522 11.1865 2.55762C11.3257 2.8763 11.3955 3.21067 11.3955 3.56152C11.3955 3.86031 11.3602 4.14416 11.29 4.41309C11.2195 4.68339 11.109 4.99797 10.958 5.35742L10.8662 5.5332C10.6412 5.94061 10.343 6.334 9.97168 6.71289C9.54459 7.14864 9.09029 7.54752 8.6084 7.90918V7.91016C8.11648 8.27292 7.64795 8.58288 7.2041 8.8418C6.77632 9.09134 6.4415 9.27707 6.19922 9.40039Z" fill="#924EFF" stroke="#7255EE" stroke-width="0.2"/>
</svg>
