<svg width="10" height="12" viewBox="0 0 10 12" fill="none" xmlns="http://www.w3.org/2000/svg">
<path d="M5 0L2.77778 2L5 4V2.5C7.14389 2.5 8.88889 4.07 8.88889 6C8.88889 6.44 8.79403 6.86005 8.62847 7.24805L9.47049 8.00488C9.8066 7.40038 10 6.721 10 6C10 3.519 7.75722 1.5 5 1.5V0ZM0.529514 3.99512C0.193403 4.59962 0 5.279 0 6C0 8.481 2.24278 10.5 5 10.5V12L7.22222 10L5 8V9.5C2.85611 9.5 1.11111 7.93 1.11111 6C1.11111 5.56 1.20597 5.13995 1.37153 4.75195L0.529514 3.99512Z" fill="#464D4A"/>
</svg>
