<svg width="7" height="6" viewBox="0 0 7 6" fill="none" xmlns="http://www.w3.org/2000/svg">
<path d="M2.74083 0C2.5775 0 2.43789 0.101578 2.40652 0.242578L2.29264 0.757031C2.01279 0.85014 1.75402 0.980221 1.5268 1.14434L0.966067 0.974414C0.811609 0.927614 0.641669 0.983808 0.559837 1.10801L0.0457233 1.89199C-0.0357678 2.01649 -0.00610898 2.17455 0.11698 2.26875L0.566497 2.6127C0.543119 2.7391 0.527872 2.86779 0.527872 3C0.527872 3.13222 0.543119 3.2609 0.566497 3.3873L0.11698 3.73125C-0.00610898 3.82545 -0.0357678 3.98351 0.0457233 4.10801L0.559837 4.89199C0.641328 5.01649 0.811609 5.07267 0.966067 5.02617L1.5268 4.85625C1.75395 5.02026 2.01292 5.1499 2.29264 5.24297L2.40652 5.75742C2.43789 5.89842 2.5775 6 2.74083 6H3.77039C3.93371 6 4.07332 5.89842 4.10469 5.75742L4.21857 5.24297C4.49842 5.14986 4.75719 5.01978 4.98441 4.85566L5.54514 5.02559C5.6996 5.07239 5.86954 5.01649 5.95137 4.89199L6.46549 4.10742C6.54698 3.98292 6.51732 3.82545 6.39423 3.73125L5.94471 3.3873C5.96809 3.2609 5.98334 3.13222 5.98334 3C5.98334 2.86779 5.96809 2.7391 5.94471 2.6127L6.39423 2.26875C6.51732 2.17455 6.54698 2.01649 6.46549 1.89199L5.95137 1.10801C5.86988 0.983508 5.6996 0.927328 5.54514 0.973828L4.98441 1.14375C4.75726 0.979738 4.4983 0.850098 4.21857 0.757031L4.10469 0.242578C4.07332 0.101578 3.93371 0 3.77039 0H2.74083ZM3.25561 1.8C4.0088 1.8 4.61947 2.3373 4.61947 3C4.61947 3.6627 4.0088 4.2 3.25561 4.2C2.50241 4.2 1.89174 3.6627 1.89174 3C1.89174 2.3373 2.50241 1.8 3.25561 1.8Z" fill="#4D4D4D"/>
</svg>
