<svg width="9" height="9" viewBox="0 0 9 9" fill="none" xmlns="http://www.w3.org/2000/svg">
<path d="M5.99219 1.24063C5.81816 1.24063 5.68281 1.10527 5.68281 0.93125C5.68281 0.892578 5.68281 0.834571 5.70215 0.795899L6.01152 0.177149C6.06953 0.0804691 6.16621 0.0224612 6.30156 0.00312531H7.22969C7.38438 0.00312531 7.53906 0.157813 7.53906 0.3125V2.47813H7.84844C8.00312 2.47813 8.15781 2.63281 8.15781 2.7875V3.40625C8.15781 3.58027 8.00312 3.71563 7.84844 3.71563H5.99219C5.81816 3.71563 5.68281 3.58027 5.68281 3.40625V2.7875C5.68281 2.63281 5.81816 2.47813 5.99219 2.47813H6.30156V1.24063H5.99219ZM6.49492 4.39238C7.51973 4.12168 8.46719 4.89512 8.46719 5.88125V6.09395C8.46719 7.4668 7.90645 8.18223 6.78496 8.64629C6.63027 8.72363 6.43691 8.62695 6.37891 8.45293L6.18555 8.06621C6.14688 7.91152 6.20488 7.7375 6.35957 7.67949C6.49492 7.62148 6.63027 7.5248 6.76563 7.42813C5.8375 7.33145 5.14141 6.44199 5.43145 5.45586C5.5668 4.93379 5.97285 4.54707 6.49492 4.39238ZM6.92031 6.26797C7.13301 6.26797 7.30703 6.11328 7.30703 5.88125C7.30703 5.66855 7.13301 5.49453 6.92031 5.49453C6.68828 5.49453 6.53359 5.66855 6.53359 5.88125C6.53359 6.11328 6.68828 6.26797 6.92031 6.26797ZM3.51719 6.19063C3.78789 6.19063 3.92324 6.53867 3.72988 6.73203L2.18301 8.58828C2.125 8.64629 2.04766 8.66562 1.97031 8.66562C1.87363 8.66562 1.79629 8.64629 1.73828 8.58828L0.191407 6.73203C-0.00195283 6.53867 0.133399 6.19063 0.423438 6.19063H1.35156V0.3125C1.35156 0.157813 1.48691 0.00312531 1.66094 0.00312531H2.27969C2.43438 0.00312531 2.58906 0.157813 2.58906 0.3125V6.19063H3.51719Z" fill="#464D4A"/>
</svg>
