<svg width="13" height="13" viewBox="0 0 13 13" fill="none" xmlns="http://www.w3.org/2000/svg">
<path fill-rule="evenodd" clip-rule="evenodd" d="M10.6069 9.18743L10.8669 8.67143C11.3965 7.61873 11.5331 6.41155 11.252 5.26713C10.9709 4.12271 10.2905 3.11619 9.3334 2.42871C8.37627 1.74123 7.2052 1.41792 6.03093 1.51697C4.85666 1.61603 3.75629 2.13093 2.92785 2.96903C2.09941 3.80713 1.59729 4.91339 1.51185 6.08873C1.42641 7.26407 1.76326 8.43131 2.46179 9.38041C3.16031 10.3295 4.17465 10.9981 5.32225 11.266C6.46985 11.5338 7.67537 11.3833 8.72186 10.8414L9.24486 10.5714L11.1309 11.0904L10.6069 9.18743ZM9.41386 12.1734C8.0502 12.8798 6.47919 13.0763 4.98357 12.7275C3.48794 12.3787 2.16592 11.5076 1.25542 10.2708C0.344925 9.03405 -0.0942529 7.51294 0.0169273 5.98121C0.128108 4.44948 0.782345 3.00773 1.8619 1.91543C2.94145 0.82313 4.37542 0.15201 5.90573 0.0228531C7.43605 -0.106304 8.96222 0.314984 10.2096 1.2109C11.4569 2.10681 12.3435 3.41851 12.7099 4.90994C13.0762 6.40137 12.8982 7.97457 12.2079 9.34643L12.9749 12.1354C13.0051 12.2462 13.0056 12.3629 12.9761 12.4739C12.9466 12.5848 12.8882 12.686 12.8069 12.7671C12.7256 12.8482 12.6243 12.9063 12.5133 12.9355C12.4023 12.9647 12.2855 12.964 12.1749 12.9334L9.41386 12.1734Z" fill="#4D4D4D"/>
</svg>
