<svg width="31" height="35" viewBox="0 0 31 35" fill="none" xmlns="http://www.w3.org/2000/svg">
<path d="M30.208 21.6667C30.208 29.0305 23.4923 35 15.208 35C6.92374 35 0.208008 29.0305 0.208008 21.6667C0.208008 14.3029 6.92374 0 15.208 0C23.4923 0 30.208 14.3029 30.208 21.6667Z" fill="#2F96FD"/>
<path d="M0.208008 21.335L2.35087 24.5703L4.76158 21.335L8.51158 23.688L10.9223 21.335L14.9402 23.688L16.5473 20.7468L20.0294 23.0997L21.1009 20.7468L24.0473 23.0997L25.3866 19.5703L28.8687 21.9233L30.208 19.5703" stroke="white" stroke-width="0.5"/>
<path d="M2.68477 11.7155L3.78806 15.3098L6.64159 12.6701L9.34834 15.7435L11.9949 13.9616L14.9344 17.0912L17.0207 14.5689L19.4947 17.5862L20.9776 15.5235L22.986 18.4285L24.9775 15.2783L27.4515 18.2956L29.1671 16.289" stroke="white" stroke-width="0.5"/>
</svg>
